<?xml version="1.0" encoding="UTF-8" standalone="no"?>
<svg
   xmlns:dc="http://purl.org/dc/elements/1.1/"
   xmlns:cc="http://creativecommons.org/ns#"
   xmlns:rdf="http://www.w3.org/1999/02/22-rdf-syntax-ns#"
   xmlns:svg="http://www.w3.org/2000/svg"
   xmlns="http://www.w3.org/2000/svg"
   xmlns:sodipodi="http://sodipodi.sourceforge.net/DTD/sodipodi-0.dtd"
   xmlns:inkscape="http://www.inkscape.org/namespaces/inkscape"
   id="SVGRoot"
   version="1.1"
   viewBox="0 0 16 16"
   height="16px"
   width="16px"
   sodipodi:docname="addCaption.svg"
   inkscape:version="0.92.3 (2405546, 2018-03-11)">
  <sodipodi:namedview
     pagecolor="#ffffff"
     bordercolor="#666666"
     borderopacity="1"
     objecttolerance="10"
     gridtolerance="10"
     guidetolerance="10"
     inkscape:pageopacity="0"
     inkscape:pageshadow="2"
     inkscape:window-width="1920"
     inkscape:window-height="1010"
     id="namedview20"
     showgrid="false"
     inkscape:zoom="29.5"
     inkscape:cx="5.9018892"
     inkscape:cy="9.2147624"
     inkscape:window-x="0"
     inkscape:window-y="34"
     inkscape:window-maximized="1"
     inkscape:current-layer="SVGRoot" />
  <defs
     id="defs8417" />
  <metadata
     id="metadata8420">
    <rdf:RDF>
      <cc:Work
         rdf:about="">
        <dc:format>image/svg+xml</dc:format>
        <dc:type
           rdf:resource="http://purl.org/dc/dcmitype/StillImage" />
        <dc:title></dc:title>
      </cc:Work>
    </rdf:RDF>
  </metadata>
  <rect
     style="color:#000000;clip-rule:nonzero;display:inline;overflow:visible;visibility:visible;opacity:1;isolation:auto;mix-blend-mode:normal;color-interpolation:sRGB;color-interpolation-filters:linearRGB;solid-color:#000000;solid-opacity:1;vector-effect:none;fill:#534d40;fill-opacity:1;fill-rule:nonzero;stroke:none;stroke-width:0.75590551;stroke-linecap:butt;stroke-linejoin:miter;stroke-miterlimit:4;stroke-dasharray:none;stroke-dashoffset:4.84255743;stroke-opacity:1;paint-order:markers fill stroke;color-rendering:auto;image-rendering:auto;shape-rendering:auto;text-rendering:auto;enable-background:accumulate"
     id="rect12908-3-3-5"
     width="14.0817"
     height="11.59766"
     x="1.1455903"
     y="2.8791361"
     ry="0" />
  <rect
     style="color:#000000;clip-rule:nonzero;display:inline;overflow:visible;visibility:visible;opacity:1;isolation:auto;mix-blend-mode:normal;color-interpolation:sRGB;color-interpolation-filters:linearRGB;solid-color:#000000;solid-opacity:1;vector-effect:none;fill:#ffffff;fill-opacity:1;fill-rule:nonzero;stroke:#8c8c8c;stroke-width:0.36500001;stroke-linecap:butt;stroke-linejoin:miter;stroke-miterlimit:4;stroke-dasharray:none;stroke-dashoffset:4.84255743;stroke-opacity:1;paint-order:markers fill stroke;color-rendering:auto;image-rendering:auto;shape-rendering:auto;text-rendering:auto;enable-background:accumulate"
     id="rect12908-3-3"
     width="14.0817"
     height="11.59766"
     x="0.5567143"
     y="2.3403668"
     ry="0" />
  <g
     aria-label="+"
     style="font-style:normal;font-weight:normal;font-size:40px;line-height:1.25;font-family:sans-serif;letter-spacing:0px;word-spacing:0px;opacity:1;vector-effect:none;fill:#534d40;fill-opacity:1;stroke:none;stroke-width:1.18166912;stroke-linecap:butt;stroke-linejoin:miter;stroke-miterlimit:4;stroke-dasharray:none;stroke-dashoffset:7.57012701;stroke-opacity:1;paint-order:markers fill stroke"
     id="text822-3"
     transform="matrix(0.63969302,0,0,0.63969302,-0.40493411,8.4925489)">
    <path
       d="m 20.555712,-10.700497 v 4.8789066 h 4.878907 v 3.3203125 h -4.878907 v 4.8789062 h -3.28125 v -4.8789062 h -4.878906 v -3.3203125 h 4.878906 v -4.8789066 z"
       id="path824-6"
       inkscape:connector-curvature="0"
       sodipodi:nodetypes="ccccccccccccc"
       style="vector-effect:none;fill:#534d40;fill-opacity:1;stroke:none;stroke-width:1.18166912;stroke-linecap:butt;stroke-linejoin:miter;stroke-miterlimit:4;stroke-dasharray:none;stroke-dashoffset:7.57012701;stroke-opacity:1;paint-order:markers fill stroke" />
  </g>
  <g
     aria-label="abc"
     style="font-style:normal;font-weight:normal;font-size:40px;line-height:1.25;font-family:sans-serif;letter-spacing:0px;word-spacing:0px;fill:#000000;fill-opacity:1;stroke:none"
     id="text840"
     transform="matrix(0.17659768,0,0,0.17659768,0.12879018,8.6581654)">
    <path
       d="m 8.8387101,-1.6383677 q 0,3.2617188 2.1484379,5.46875 2.167968,2.2070313 5.292968,2.2070313 2.851563,0 5.019532,-2.2070313 2.1875,-2.2265625 2.1875,-5.1953125 0,-3.1640625 -2.167969,-5.4101562 -2.148438,-2.265625 -5.117188,-2.265625 -3.046875,0 -5.214843,2.1484375 -2.1484379,2.1484375 -2.1484379,5.2539062 z M 23.291835,9.2405386 V 6.6038198 q -1.484375,1.5429688 -3.320312,2.34375 -1.816407,0.78125 -3.886719,0.78125 -4.84375,0 -8.0468752,-3.2226562 -3.203125,-3.2421875 -3.203125,-8.1054688 0,-2.265625 0.8007813,-4.296875 0.8007812,-2.03125 2.2851562,-3.5742187 1.6210938,-1.6992191 3.5351567,-2.5000001 1.933593,-0.820312 4.394531,-0.820312 2.207031,0 4.0625,0.78125 1.855469,0.78125 3.378906,2.3632808 v -2.5976558 h 3.90625 V 9.2405386 Z"
       style="font-style:normal;font-variant:normal;font-weight:normal;font-stretch:normal;font-family:'AvantGarde Md BT';-inkscape-font-specification:'AvantGarde Md BT'"
       id="path842"
       inkscape:connector-curvature="0" />
    <path
       d="m 35.342616,-1.3649302 q 0,2.96875 2.167969,5.1953125 2.1875,2.2070313 5.039063,2.2070313 3.105468,0 5.253906,-2.1875 2.148437,-2.2070313 2.148437,-5.4882813 0,-3.0859375 -2.167968,-5.234375 -2.167969,-2.1679687 -5.195313,-2.1679687 -2.96875,0 -5.117187,2.2460937 -2.128907,2.2460938 -2.128907,5.4296875 z m 0.15625,7.96875 v 2.6367188 h -3.90625 V -19.196961 h 3.867188 v 9.5507808 q 1.5625,-1.5820308 3.417969,-2.3632808 1.875,-0.78125 4.0625,-0.78125 2.460937,0 4.375,0.820312 1.933593,0.800781 3.554687,2.5000001 1.503906,1.5625 2.304688,3.59375 0.800781,2.03125 0.800781,4.2773437 0,4.8632813 -3.203125,8.1054688 -3.203125,3.2226562 -8.066406,3.2226562 -2.070313,0 -3.90625,-0.78125 -1.816407,-0.8007812 -3.300782,-2.34375 z"
       style="font-style:normal;font-variant:normal;font-weight:normal;font-stretch:normal;font-family:'AvantGarde Md BT';-inkscape-font-specification:'AvantGarde Md BT'"
       id="path844"
       inkscape:connector-curvature="0" />
    <path
       d="m 77.881679,1.9163198 q -1.347656,3.8867188 -4.003906,5.8984375 -2.65625,1.9921875 -6.464844,1.9921875 -2.402344,0 -4.355469,-0.8203125 -1.953125,-0.8398437 -3.535156,-2.5 -1.503906,-1.5820312 -2.363281,-3.671875 -0.839844,-2.10937495 -0.839844,-4.296875 0,-2.2460937 0.761719,-4.1992187 0.78125,-1.9726563 2.285156,-3.59375 1.660156,-1.7773436 3.730469,-2.6953126 2.070312,-0.917969 4.433593,-0.917969 3.691407,0 6.40625,2.050782 2.714844,2.0312496 3.945313,5.7226558 h -4.238281 q -1.015625,-1.9726562 -2.617188,-2.9492187 -1.601562,-0.9765625 -3.828125,-0.9765625 -2.871094,0 -4.882812,2.1679687 -1.992188,2.1679688 -1.992188,5.3515625 0,3.2226563 2.03125,5.3710938 2.03125,2.1484375 5.058594,2.1484375 2.03125,0 3.671875,-1.0546875 1.640625,-1.0742188 2.558594,-3.0273438 z"
       style="font-style:normal;font-variant:normal;font-weight:normal;font-stretch:normal;font-family:'AvantGarde Md BT';-inkscape-font-specification:'AvantGarde Md BT'"
       id="path846"
       inkscape:connector-curvature="0" />
  </g>
  <g
     aria-label="+"
     style="font-style:normal;font-weight:normal;font-size:40px;line-height:1.25;font-family:sans-serif;letter-spacing:0px;word-spacing:0px;fill:#000000;fill-opacity:1;stroke:none"
     id="text822"
     transform="matrix(0.63969302,0,0,0.63969302,-1.0130176,8.0714669)">
    <path
       d="m 20.555712,-10.700497 v 4.8789066 h 4.878907 v 3.3203125 h -4.878907 v 4.8789062 h -3.28125 v -4.8789062 h -4.878906 v -3.3203125 h 4.878906 v -4.8789066 z"
       id="path824"
       inkscape:connector-curvature="0"
       sodipodi:nodetypes="ccccccccccccc"
       style="fill:#50902b;fill-opacity:1" />
  </g>
  <g
     aria-label="abc"
     style="font-style:normal;font-weight:normal;font-size:40px;line-height:1.25;font-family:sans-serif;letter-spacing:0px;word-spacing:0px;fill:#000000;fill-opacity:1;stroke:none"
     id="text840-2"
     transform="matrix(0.17659768,0,0,0.17659768,2.7640271,11.710483)" />
</svg>
