<?xml version="1.0" encoding="UTF-8" standalone="no"?>
<svg
   xmlns:dc="http://purl.org/dc/elements/1.1/"
   xmlns:cc="http://creativecommons.org/ns#"
   xmlns:rdf="http://www.w3.org/1999/02/22-rdf-syntax-ns#"
   xmlns:svg="http://www.w3.org/2000/svg"
   xmlns="http://www.w3.org/2000/svg"
   xmlns:sodipodi="http://sodipodi.sourceforge.net/DTD/sodipodi-0.dtd"
   xmlns:inkscape="http://www.inkscape.org/namespaces/inkscape"
   id="SVGRoot"
   version="1.1"
   viewBox="0 0 16 16"
   height="16px"
   width="16px"
   sodipodi:docname="addDialog.svg"
   inkscape:version="0.92.3 (2405546, 2018-03-11)">
  <sodipodi:namedview
     pagecolor="#ffffff"
     bordercolor="#666666"
     borderopacity="1"
     objecttolerance="10"
     gridtolerance="10"
     guidetolerance="10"
     inkscape:pageopacity="0"
     inkscape:pageshadow="2"
     inkscape:window-width="1920"
     inkscape:window-height="1010"
     id="namedview20"
     showgrid="false"
     inkscape:zoom="29.5"
     inkscape:cx="8.6031471"
     inkscape:cy="11.327513"
     inkscape:window-x="0"
     inkscape:window-y="34"
     inkscape:window-maximized="1"
     inkscape:current-layer="SVGRoot" />
  <defs
     id="defs8417" />
  <metadata
     id="metadata8420">
    <rdf:RDF>
      <cc:Work
         rdf:about="">
        <dc:format>image/svg+xml</dc:format>
        <dc:type
           rdf:resource="http://purl.org/dc/dcmitype/StillImage" />
        <dc:title></dc:title>
      </cc:Work>
    </rdf:RDF>
  </metadata>
  <path
     style="opacity:1;vector-effect:none;fill:#534d40;fill-opacity:1;stroke:none;stroke-width:1.07970083;stroke-linecap:butt;stroke-linejoin:miter;stroke-miterlimit:4;stroke-dasharray:none;stroke-dashoffset:4.84255743;stroke-opacity:1;paint-order:markers fill stroke"
     d="m 15.281184,8.118962 c -0.205898,2.398924 -1.747315,3.621688 -5.100476,4.275343 -0.3816994,0.0744 -1.3011697,0.162408 -1.6678696,0.10287 -1.1028009,1.977591 -7.2372133,2.495701 -7.2372133,2.495701 0,0 5.9848495,-1.432603 4.9661838,-2.723055 C 4.6328307,12.183531 1.1438168,11.176647 1.1825169,7.8284493 1.2067259,4.0529722 6.537034,3.6499455 9.6481016,3.6499456 c 3.1110664,6e-7 5.8812524,1.5775863 5.6330824,4.4690164 z"
     id="path950-9"
     inkscape:connector-curvature="0"
     sodipodi:nodetypes="ssccccss" />
  <path
     style="opacity:1;vector-effect:none;fill:#ffffff;fill-opacity:1;stroke:#8c8c8c;stroke-width:0.36500001;stroke-linecap:butt;stroke-linejoin:miter;stroke-miterlimit:4;stroke-dasharray:none;stroke-dashoffset:4.84255743;stroke-opacity:1;paint-order:markers fill stroke;font-variant-east_asian:normal"
     d="m 14.404195,7.661372 c -0.205899,2.398923 -1.747316,3.621687 -5.1004767,4.275341 -0.3816991,0.0744 -1.3011693,0.162408 -1.6678692,0.10287 -1.1028015,1.977591 -6.6209423,2.75248 -6.6209423,2.75248 0,0 5.368578,-1.689381 4.3499139,-2.979834 C 3.7558421,11.725942 0.26682788,10.719057 0.305528,7.3708593 0.32973746,3.5953822 5.6600445,3.1923555 8.7711121,3.1923556 c 3.1110659,6e-7 5.8812519,1.5775863 5.6330829,4.4690164 z"
     id="path950"
     inkscape:connector-curvature="0"
     sodipodi:nodetypes="ssccccss" />
  <g
     aria-label="+"
     style="font-style:normal;font-weight:normal;font-size:40px;line-height:1.25;font-family:sans-serif;letter-spacing:0px;word-spacing:0px;opacity:1;vector-effect:none;fill:#534d40;fill-opacity:1;stroke:none;stroke-width:1.18166912;stroke-linecap:butt;stroke-linejoin:miter;stroke-miterlimit:4;stroke-dasharray:none;stroke-dashoffset:7.57012701;stroke-opacity:1;paint-order:markers fill stroke"
     id="text822-3"
     transform="matrix(0.63969302,0,0,0.63969302,-0.40493411,8.4925489)">
    <path
       d="m 20.555712,-10.700497 v 4.8789066 h 4.878907 v 3.3203125 h -4.878907 v 4.8789062 h -3.28125 v -4.8789062 h -4.878906 v -3.3203125 h 4.878906 v -4.8789066 z"
       id="path824-6"
       inkscape:connector-curvature="0"
       sodipodi:nodetypes="ccccccccccccc"
       style="vector-effect:none;fill:#534d40;fill-opacity:1;stroke:none;stroke-width:1.18166912;stroke-linecap:butt;stroke-linejoin:miter;stroke-miterlimit:4;stroke-dasharray:none;stroke-dashoffset:7.57012701;stroke-opacity:1;paint-order:markers fill stroke" />
  </g>
  <g
     aria-label="+"
     style="font-style:normal;font-weight:normal;font-size:40px;line-height:1.25;font-family:sans-serif;letter-spacing:0px;word-spacing:0px;fill:#000000;fill-opacity:1;stroke:none"
     id="text822"
     transform="matrix(0.63969302,0,0,0.63969302,-1.0130176,8.0714669)">
    <path
       d="m 20.555712,-10.700497 v 4.8789066 h 4.878907 v 3.3203125 h -4.878907 v 4.8789062 h -3.28125 v -4.8789062 h -4.878906 v -3.3203125 h 4.878906 v -4.8789066 z"
       id="path824"
       inkscape:connector-curvature="0"
       sodipodi:nodetypes="ccccccccccccc"
       style="fill:#50902b;fill-opacity:1" />
  </g>
</svg>
