<?xml version="1.0" encoding="UTF-8" standalone="no"?>
<svg
   xmlns:dc="http://purl.org/dc/elements/1.1/"
   xmlns:cc="http://creativecommons.org/ns#"
   xmlns:rdf="http://www.w3.org/1999/02/22-rdf-syntax-ns#"
   xmlns:svg="http://www.w3.org/2000/svg"
   xmlns="http://www.w3.org/2000/svg"
   width="16px"
   height="16px"
   viewBox="0 0 16 16"
   version="1.1"
   id="SVGRoot">
  <defs
     id="defs8417" />
  <metadata
     id="metadata8420">
    <rdf:RDF>
      <cc:Work
         rdf:about="">
        <dc:format>image/svg+xml</dc:format>
        <dc:type
           rdf:resource="http://purl.org/dc/dcmitype/StillImage" />
        <dc:title></dc:title>
      </cc:Work>
    </rdf:RDF>
  </metadata>
  <g
     id="text4750"
     style="font-style:normal;font-weight:normal;font-size:40px;line-height:439.99212646px;font-family:sans-serif;letter-spacing:7.80999994px;word-spacing:0px;fill:#000000;fill-opacity:1;stroke:none;stroke-width:1px;stroke-linecap:butt;stroke-linejoin:miter;stroke-opacity:1"
     aria-label="B">
    <path
       id="path4752"
       style="font-style:normal;font-variant:normal;font-weight:bold;font-stretch:normal;font-size:21.33333397px;font-family:'Liberation Serif';-inkscape-font-specification:'Liberation Serif Bold'"
       d="m 10.151042,4.4322914 q 0,-0.5937501 -0.125,-1.0208334 Q 9.9114584,2.973958 9.6406251,2.692708 9.3697917,2.4010413 8.9322917,2.2656246 8.5052084,2.130208 7.890625,2.130208 H 6.4427083 v 4.8645834 h 1.53125 q 0.6354167,0 1.0520834,-0.1770833 0.4270834,-0.1770833 0.6770834,-0.5 0.25,-0.3333334 0.3437499,-0.8020834 0.104167,-0.4791667 0.104167,-1.0833333 z m 1.052083,6.4479166 q 0,-1.3854165 -0.697917,-2.0624998 Q 9.8177084,8.1406248 8.2447917,8.1406248 H 6.4427083 v 5.6666672 q 0.5,0.02083 0.9583334,0.03125 0.3854166,0.02083 0.78125,0.03125 0.3958333,0 0.625,0 0.65625,0 1.1145834,-0.208334 0.4583329,-0.208333 0.7395829,-0.59375 0.28125,-0.385416 0.40625,-0.9375 0.135417,-0.552083 0.135417,-1.25 z m -9.8437502,4.072917 v -0.760417 l 1.8020834,-0.28125 V 2.0156246 L 1.3593748,1.7447913 V 0.98437458 H 8.140625 q 1.5520834,0 2.59375,0.21875002 1.041667,0.21875 1.666667,0.625 0.635416,0.40625 0.895833,0.9895834 0.270834,0.5833333 0.270834,1.3229167 0,0.6979167 -0.239584,1.2604167 -0.229167,0.5625 -0.625,0.9895833 -0.395833,0.4166667 -0.916667,0.6979167 -0.520833,0.2708334 -1.09375,0.3958334 1.03125,0.1041666 1.770834,0.3854167 0.75,0.28125 1.229167,0.71875 0.489583,0.4375 0.71875,1.0208333 0.229166,0.5729172 0.229166,1.2708332 0,0.90625 -0.322916,1.666667 -0.322917,0.760417 -1.03125,1.3125 -0.697917,0.541667 -1.802084,0.854167 -1.09375,0.302083 -2.6458333,0.302083 -1.25,0 -2.4791667,-0.03125 -1.2291667,-0.03125 -2.2708334,-0.03125 z" />
  </g>
</svg>
