<?xml version="1.0" encoding="UTF-8" standalone="no"?>
<svg
   xmlns:dc="http://purl.org/dc/elements/1.1/"
   xmlns:cc="http://creativecommons.org/ns#"
   xmlns:rdf="http://www.w3.org/1999/02/22-rdf-syntax-ns#"
   xmlns:svg="http://www.w3.org/2000/svg"
   xmlns="http://www.w3.org/2000/svg"
   width="16px"
   height="16px"
   viewBox="0 0 16 16"
   version="1.1"
   id="SVGRoot">
  <defs
     id="defs8417" />
  <metadata
     id="metadata8420">
    <rdf:RDF>
      <cc:Work
         rdf:about="">
        <dc:format>image/svg+xml</dc:format>
        <dc:type
           rdf:resource="http://purl.org/dc/dcmitype/StillImage" />
        <dc:title></dc:title>
      </cc:Work>
    </rdf:RDF>
  </metadata>
  <g
     transform="matrix(0.92991593,0,0,0.88044683,0.56067236,0.12142114)"
     id="text4750"
     style="font-style:normal;font-weight:normal;font-size:40px;line-height:439.99212646px;font-family:sans-serif;letter-spacing:7.80999994px;word-spacing:0px;fill:#000000;fill-opacity:1;stroke:none;stroke-width:1px;stroke-linecap:butt;stroke-linejoin:miter;stroke-opacity:1"
     aria-label="U">
    <path
       id="path4798"
       style="font-style:normal;font-variant:normal;font-weight:normal;font-stretch:normal;font-size:21.33333397px;font-family:'Liberation Serif';-inkscape-font-specification:'Liberation Serif'"
       d="m 12.369792,1.8385413 -1.875,-0.2708334 V 1.0156246 h 4.760417 v 0.5520833 l -1.791667,0.2708334 v 8.3437507 q 0,0.958333 -0.239584,1.864583 -0.239583,0.895833 -0.84375,1.59375 -0.604166,0.697917 -1.65625,1.125 -1.0416663,0.427083 -2.645833,0.427083 -2.7812501,0 -4.1666668,-1.25 -1.375,-1.260416 -1.375,-3.5625 V 1.8385413 L 0.74479144,1.5677079 V 1.0156246 H 6.3281249 V 1.5677079 L 4.5364582,1.8385413 v 8.3854167 q 0,0.854167 0.1979167,1.5625 0.2083333,0.697917 0.6458333,1.197917 0.4479167,0.5 1.1458334,0.770833 0.7083334,0.270834 1.7083334,0.270834 1.09375,0 1.875,-0.270834 0.78125,-0.270833 1.28125,-0.760416 0.510417,-0.489584 0.739583,-1.1875 0.239584,-0.697917 0.239584,-1.541667 z" />
  </g>
  <path
     id="path4796"
     d="m 1.2881361,14.711865 13.4237279,0.0678"
     style="fill:none;fill-rule:evenodd;stroke:#000000;stroke-width:1px;stroke-linecap:butt;stroke-linejoin:miter;stroke-opacity:1" />
</svg>
